<mxfile host="app.diagrams.net" modified="2024-05-22T13:47:47.068Z" agent="Mozilla/5.0 (Windows NT 10.0; Win64; x64) AppleWebKit/537.36 (KHTML, like Gecko) Chrome/121.0.0.0 Safari/537.36" version="24.4.6" etag="OveXM31AJM4OTfaI1Zlt" type="github">
  <diagram name="PÃ¡gina-1" id="Wk4PGQSUtbQeA8CT9Q2T">
    <mxGraphModel>
      <root>
        <mxCell id="0" />
        <mxCell id="1" parent="0" />
      </root>
    </mxGraphModel>
  </diagram>
</mxfile>
